HIERARCHY
ROOT Hips
{
	OFFSET 0.000000 0.000000 0.000000
	CHANNELS 6 Xposition Yposition Zposition Xrotation Yrotation Zrotation
	JOINT LeftUpLeg_virtual
	{
		OFFSET 0.000000 0.000000 0.000000
		CHANNELS 3 Xrotation Yrotation Zrotation
		JOINT LeftUpLeg
		{
			OFFSET 13.026900 -6.336304 -1.092800
			CHANNELS 3 Xrotation Yrotation Zrotation
			JOINT LeftLeg
			{
				OFFSET 0.524474 -46.096886 9.782700
				CHANNELS 3 Xrotation Yrotation Zrotation
				JOINT LeftFoot
				{
					OFFSET -0.524474 -53.427422 -12.948200
					CHANNELS 3 Xrotation Yrotation Zrotation
					JOINT LeftToeBase
					{
						OFFSET 0.192200 -14.009700 16.364100
						CHANNELS 3 Xrotation Yrotation Zrotation
						JOINT LeftToe_End
						{
							OFFSET -1.784700 -0.561700 9.474800
							CHANNELS 3 Xrotation Yrotation Zrotation
							End Site
							{
								OFFSET 0 0 0
							}
						}
					}
				}
			}
		}
	}
	JOINT RightUpLeg_virtual
	{
		OFFSET 0.000000 0.000000 0.000000
		CHANNELS 3 Xrotation Yrotation Zrotation
		JOINT RightUpLeg
		{
			OFFSET -12.883000 -6.336304 -1.092800
			CHANNELS 3 Xrotation Yrotation Zrotation
			JOINT RightLeg
			{
				OFFSET -0.524587 -46.096825 9.782800
				CHANNELS 3 Xrotation Yrotation Zrotation
				JOINT RightFoot
				{
					OFFSET 0.524587 -53.427383 -12.948300
					CHANNELS 3 Xrotation Yrotation Zrotation
					JOINT RightToeBase
					{
						OFFSET -0.192200 -14.009700 16.364100
						CHANNELS 3 Xrotation Yrotation Zrotation
						JOINT RightToe_End
						{
							OFFSET 1.784700 -0.561700 9.474800
							CHANNELS 3 Xrotation Yrotation Zrotation
							End Site
							{
								OFFSET 0 0 0
							}
						}
					}
				}
			}
		}
	}
	JOINT Spine_virtual
	{
		OFFSET 0.000000 0.000000 0.000000
		CHANNELS 3 Xrotation Yrotation Zrotation
		JOINT Spine
		{
			OFFSET 0.072000 7.257294 -0.789700
			CHANNELS 3 Xrotation Yrotation Zrotation
			JOINT Spine1
			{
				OFFSET 0.000000 12.508769 -0.658067
				CHANNELS 3 Xrotation Yrotation Zrotation
				JOINT Spine1_split
				{
					OFFSET 0.000000 12.508769 -0.658067
					CHANNELS 3 Xrotation Yrotation Zrotation
					JOINT Spine2
					{
						OFFSET 0.000000 12.508769 -0.658067
						CHANNELS 3 Xrotation Yrotation Zrotation
						JOINT Neck_virtual
						{
							OFFSET 0.000000 0.000000 0.000000
							CHANNELS 3 Xrotation Yrotation Zrotation
							JOINT Neck
							{
								OFFSET 0.000000 14.033295 7.520400
								CHANNELS 3 Xrotation Yrotation Zrotation
								JOINT Head
								{
									OFFSET 0.000000 8.198502 5.703100
									CHANNELS 3 Xrotation Yrotation Zrotation
									JOINT HeadTop_End
									{
										OFFSET 0.000000 17.760803 13.332701
										CHANNELS 3 Xrotation Yrotation Zrotation
										End Site
										{
											OFFSET 0 0 0
										}
									}
								}
							}
						}
						JOINT LeftShoulder_virtual
						{
							OFFSET 0.000000 0.000000 0.000000
							CHANNELS 3 Xrotation Yrotation Zrotation
							JOINT LeftShoulder
							{
								OFFSET 6.292450 5.785301 -0.669000
								CHANNELS 3 Xrotation Yrotation Zrotation
								JOINT LeftShoulder_split
								{
									OFFSET 6.292450 5.785301 -0.669000
									CHANNELS 3 Xrotation Yrotation Zrotation
									JOINT LeftArm
									{
										OFFSET 13.907140 -6.093903 1.965100
										CHANNELS 3 Xrotation Yrotation Zrotation
										JOINT LeftForeArm
										{
											OFFSET 34.140198 0.000000 0.000000
											CHANNELS 3 Xrotation Yrotation Zrotation
											JOINT LeftHand
											{
												OFFSET 40.960209 0.000000 0.000000
												CHANNELS 3 Xrotation Yrotation Zrotation
												End Site
												{
													OFFSET 0 0 0
												}
											}
										}
									}
								}
							}
						}
						JOINT RightShoulder_virtual
						{
							OFFSET 0.000000 0.000000 0.000000
							CHANNELS 3 Xrotation Yrotation Zrotation
							JOINT RightShoulder
							{
								OFFSET -6.292450 5.785301 -0.669000
								CHANNELS 3 Xrotation Yrotation Zrotation
								JOINT RightShoulder_split
								{
									OFFSET -6.292450 5.785301 -0.669000
									CHANNELS 3 Xrotation Yrotation Zrotation
									JOINT RightArm
									{
										OFFSET -13.907140 -6.093903 1.965100
										CHANNELS 3 Xrotation Yrotation Zrotation
										JOINT RightForeArm
										{
											OFFSET -34.140198 0.000000 0.000000
											CHANNELS 3 Xrotation Yrotation Zrotation
											JOINT RightHand
											{
												OFFSET -40.960209 0.000000 0.000000
												CHANNELS 3 Xrotation Yrotation Zrotation
												End Site
												{
													OFFSET 0 0 0
												}
											}
										}
									}
								}
							}
						}
					}
				}
			}
		}
	}
}
MOTION
Frames: 7
Frame Time: 0.03333333
-13.490799 96.107643 -6.457214 0.000000 0.000000 0.000000 0.972126 -24.774512 9.433512 -45.264077 23.540604 25.571559 36.224161 -20.828158 2.039893 9.242335 0.258056 -3.380448 -0.201443 -5.705476 5.047007 0.000000 0.000000 0.000000 -0.440042 -24.694757 8.843031 -18.343660 -6.832086 -27.287823 49.055552 7.910331 -4.377632 -20.252551 -20.407828 31.142401 1.562145 3.618437 -14.949877 0.000000 0.000000 0.000000 -0.022984 -12.927214 9.596291 25.898237 -5.229476 5.232567 17.569277 -8.145701 -5.427327 0.243451 -0.839074 0.450334 0.000000 0.000000 0.000000 9.043712 -5.146127 -4.866463 -48.966692 49.337704 34.534307 -69.486404 -22.848588 -45.327953 0.000000 0.000000 0.000000 5.196768 -8.166256 -6.881002 10.870281 -20.730299 0.196540 8.498619 -5.562153 -3.169129 -28.438266 -29.105540 -12.713553 24.611460 -37.033538 11.324288 0.000000 0.000000 0.000000 4.921000 -8.035831 -3.853754 14.011651 11.197846 19.592968 27.335223 10.270073 -2.640293 -18.607495 -2.405619 41.714752 -29.542586 71.511404 13.452466 0.000000 0.000000 0.000000 
-13.152679 97.167023 -5.948868 0.000000 0.000000 0.000000 -0.540450 -22.329543 7.150006 -47.110905 23.948291 25.916190 36.611484 -20.384256 2.043355 10.695517 -0.001411 -0.722824 -1.736566 -5.625094 4.789332 0.000000 0.000000 0.000000 -1.324435 -22.114139 6.930157 -14.738758 -9.310858 -25.380582 44.880845 6.848519 -4.311144 -20.160644 -20.361465 30.629485 0.764182 3.522807 -14.357980 0.000000 0.000000 0.000000 -1.067849 -10.708912 7.264815 24.636141 -4.502192 4.430574 17.596627 -5.736283 -4.533772 0.311487 -0.737985 0.422108 0.000000 0.000000 0.000000 9.787819 -2.929120 -3.861742 -49.422491 46.228240 34.317025 -72.455965 -23.785763 -46.654625 0.000000 0.000000 0.000000 5.519423 -5.861095 -5.325715 10.098031 -20.950509 2.561754 8.661187 -5.676016 -6.577704 -26.323851 -27.766806 -15.353816 17.630979 -34.133283 8.526649 0.000000 0.000000 0.000000 5.176950 -5.998255 -3.004050 13.349177 8.516822 19.906177 27.782083 10.788048 -1.396107 -19.672063 -4.981152 40.345938 -31.615467 74.900435 16.116017 0.000000 0.000000 0.000000 
-12.765336 98.082985 -6.013672 0.000000 0.000000 0.000000 -1.567842 -19.582149 5.172230 -49.028256 23.729167 26.464154 36.831577 -20.034707 2.006820 12.000523 -0.380293 1.306704 -2.585260 -5.448640 4.443076 0.000000 0.000000 0.000000 -1.726469 -18.910391 5.289070 -11.372440 -10.930022 -23.351170 40.798820 5.958722 -4.456698 -20.155962 -20.536089 30.206057 0.095007 3.494759 -13.642228 0.000000 0.000000 0.000000 -1.863798 -8.357358 5.130398 23.286634 -3.925453 4.037946 17.761316 -3.641888 -3.517188 0.348382 -0.617580 0.313859 0.000000 0.000000 0.000000 10.530028 -1.007491 -2.759972 -50.521332 43.443268 34.230449 -74.739290 -22.196815 -46.751798 0.000000 0.000000 0.000000 5.863495 -3.860096 -3.804332 9.206708 -19.977982 5.201743 8.429335 -6.587828 -9.367544 -24.481563 -25.263471 -19.684675 12.284406 -33.156033 7.032185 0.000000 0.000000 0.000000 5.420953 -4.243095 -2.056112 12.394534 5.816111 19.555340 24.748881 11.929485 -0.168573 -18.637964 -6.034050 39.126363 -35.929165 76.175474 21.484328 0.000000 0.000000 0.000000 
-12.231116 98.734764 -6.406368 0.000000 0.000000 0.000000 -2.119816 -16.846230 3.544349 -50.850632 22.985948 27.167074 37.235582 -19.780441 1.947304 12.902462 -0.905942 2.732187 -2.846312 -5.244860 4.194465 0.000000 0.000000 0.000000 -1.872319 -15.428315 3.897334 -8.801596 -11.769670 -21.632596 37.550389 5.458528 -4.780217 -19.903146 -20.667191 30.151255 -0.799949 3.536952 -12.941077 0.000000 0.000000 0.000000 -2.236361 -6.013065 3.367450 21.851672 -3.549634 3.933776 17.832340 -1.967809 -2.617090 0.274001 -0.504208 0.250642 0.000000 0.000000 0.000000 10.995402 0.498378 -1.765716 -51.698279 41.557384 33.989770 -75.543183 -18.434990 -45.254767 0.000000 0.000000 0.000000 6.067249 -2.271854 -2.573467 8.146507 -17.914213 7.717812 8.055297 -7.835740 -11.151218 -22.531561 -21.413328 -25.218383 8.937460 -34.109002 6.581450 0.000000 0.000000 0.000000 5.557862 -2.877188 -1.161139 11.221666 3.227544 18.529011 19.230251 13.209168 1.449952 -16.011732 -5.199394 37.986387 -39.508864 74.758982 26.395377 0.000000 0.000000 0.000000 
-11.497306 99.034790 -6.950191 0.000000 0.000000 0.000000 -2.155457 -14.528270 2.314433 -52.570955 21.785860 28.015503 38.297052 -19.556853 1.866391 13.315403 -1.602821 3.583607 -2.641091 -5.049916 4.068085 0.000000 0.000000 0.000000 -1.876326 -12.362125 2.790400 -7.567214 -12.124241 -20.504788 35.502610 5.348983 -5.135587 -19.485859 -20.567170 30.339253 -1.418567 3.559484 -12.366446 0.000000 0.000000 0.000000 -2.324537 -3.790434 2.098759 20.434268 -3.327246 3.954831 17.714241 -0.731325 -2.001338 0.190161 -0.488918 0.157080 0.000000 0.000000 0.000000 10.978618 1.579858 -1.036187 -52.488597 40.873406 33.491573 -74.836088 -13.311294 -42.258691 0.000000 0.000000 0.000000 6.005076 -1.129050 -1.833757 6.908445 -14.987004 10.086595 7.686162 -8.800748 -11.735867 -20.465210 -16.244413 -31.313296 7.252131 -36.420809 6.786298 0.000000 0.000000 0.000000 5.529261 -1.851426 -0.499563 9.932463 0.817858 16.929075 12.095980 13.626752 3.501419 -12.253508 -2.629692 36.568881 -41.185955 71.262178 29.510170 0.000000 0.000000 0.000000 
-10.674100 98.928802 -7.449062 0.000000 0.000000 0.000000 -1.950893 -12.812854 1.416742 -53.971431 20.208286 28.905104 40.073014 -19.349021 1.820400 13.243875 -2.403949 3.956124 -2.393132 -4.913631 4.120481 0.000000 0.000000 0.000000 -1.899354 -10.116828 1.963477 -7.824937 -12.255393 -20.060768 34.530776 5.628768 -5.405044 -19.146743 -20.009410 30.567077 -1.272143 3.521651 -12.013014 0.000000 0.000000 0.000000 -2.153717 -2.077542 1.227636 19.046174 -3.180813 3.860233 17.331194 0.144243 -1.764907 0.030835 -0.660906 0.106210 0.000000 0.000000 0.000000 10.508162 2.317737 -0.654557 -52.735973 41.087884 32.791537 -72.822828 -7.820777 -38.167954 0.000000 0.000000 0.000000 5.671822 -0.335149 -1.622500 5.647958 -11.737105 12.387052 7.736878 -9.177522 -11.268648 -18.177420 -10.481385 -36.899557 6.648962 -39.224779 7.180861 0.000000 0.000000 0.000000 5.299524 -1.134645 -0.138734 8.625142 -1.256252 14.977818 6.535337 13.143740 4.535864 -8.186295 1.112867 34.655533 -41.360603 66.631364 31.112683 0.000000 0.000000 0.000000 
-9.778088 98.516388 -7.866535 0.000000 0.000000 0.000000 -1.630226 -11.851019 0.746891 -54.819313 18.396980 29.629559 42.239468 -19.013099 1.812760 12.662148 -3.052164 4.074459 -2.115130 -4.839007 4.229236 0.000000 0.000000 0.000000 -1.981521 -9.027140 1.358574 -9.441944 -12.193806 -20.329530 34.591708 6.260897 -5.513416 -18.732649 -18.841567 30.952112 -0.585045 3.476092 -11.968937 0.000000 0.000000 0.000000 -1.908078 -1.184230 0.642918 17.715697 -3.005852 3.535686 16.681335 0.782383 -1.897508 -0.052309 -0.858540 0.144885 0.000000 0.000000 0.000000 9.684280 2.848422 -0.651292 -52.417300 41.830636 32.086910 -69.868764 -3.096860 -33.463562 0.000000 0.000000 0.000000 5.129480 0.216550 -1.856502 4.488995 -8.777894 14.664174 8.479938 -8.508817 -9.637570 -15.942310 -4.731763 -41.540387 6.743657 -42.327973 7.626045 0.000000 0.000000 0.000000 4.809596 -0.618371 -0.115166 7.429348 -2.828796 12.995600 3.074709 11.944614 4.628622 -4.477994 5.238538 32.630078 -40.344374 61.570289 31.462464 0.000000 0.000000 0.000000 
